<svg xmlns="http://www.w3.org/2000/svg" id="Group_1460" data-name="Group 1460" width="45.924" height="44.376" viewBox="0 0 45.924 44.376">
  <path id="Path_725" data-name="Path 725" d="M-1299.687,1189.7a22.321,22.321,0,0,1-8.791-2.022,41.281,41.281,0,0,1-11.478-7.811,41.062,41.062,0,0,1-8.68-11.327,26.382,26.382,0,0,1-2.622-7.622,12.525,12.525,0,0,1,1.274-8.456,8.08,8.08,0,0,1,6.708-4.273c.456-.04.915-.046,1.372-.075a2.685,2.685,0,0,1,2.059.786,7.692,7.692,0,0,1,1.762,2.71c.339.8.624,1.614.927,2.424.48,1.286.965,2.57,1.428,3.862a11.936,11.936,0,0,1,.407,1.432,3.171,3.171,0,0,1-.406,2.386,8.9,8.9,0,0,1-2.695,2.913,7.389,7.389,0,0,0-.794.581.882.882,0,0,0-.2,1.385,31.774,31.774,0,0,0,2.351,3.084,67.14,67.14,0,0,0,8.409,7.743c.173.133.365.243.543.37a.47.47,0,0,0,.687-.072q1.575-1.574,3.164-3.134a3.428,3.428,0,0,1,2.8-1.1,4.774,4.774,0,0,1,1.266.322c2.937,1.146,5.867,2.311,8.8,3.47a2.39,2.39,0,0,1,1.42,1.867,7.057,7.057,0,0,1-.079,3.257,10.507,10.507,0,0,1-1.992,4.139,8.168,8.168,0,0,1-5.672,3.019C-1298.372,1189.638-1299.031,1189.653-1299.687,1189.7Z" transform="translate(1331.483 -1145.323)" fill="#000"/>
  <path id="Path_726" data-name="Path 726" d="M-974.6,1101.546a23.125,23.125,0,0,1,11.877,3.739,23.173,23.173,0,0,1,10.36,15.168,32.167,32.167,0,0,1,.441,3.583,1.147,1.147,0,0,1-1.154,1.281,1.178,1.178,0,0,1-1.172-1.187,21.213,21.213,0,0,0-17.141-19.857,22.7,22.7,0,0,0-4.038-.389,1.123,1.123,0,0,1-1.051-.617,1.119,1.119,0,0,1,.072-1.217,1.15,1.15,0,0,1,.968-.5C-975.156,1101.54-974.877,1101.546-974.6,1101.546Z" transform="translate(997.839 -1101.544)" fill="#000"/>
  <path id="Path_727" data-name="Path 727" d="M-975.119,1204a17.484,17.484,0,0,1,15.514,11.422,17.006,17.006,0,0,1,1.023,4.894,1.164,1.164,0,0,1-1.136,1.327,1.187,1.187,0,0,1-1.193-1.2,14.679,14.679,0,0,0-2.91-7.968,14.856,14.856,0,0,0-9.622-5.933,19.954,19.954,0,0,0-2.019-.2,1.173,1.173,0,0,1-1.06-1.716,1.121,1.121,0,0,1,.985-.626C-975.4,1203.994-975.258,1204-975.119,1204Z" transform="translate(997.88 -1197.872)" fill="#000"/>
  <path id="Path_728" data-name="Path 728" d="M-965.482,1314.871a1.244,1.244,0,0,1-1.151,1.408,1.193,1.193,0,0,1-1.178-1.054,9.082,9.082,0,0,0-3.485-6.4,9.029,9.029,0,0,0-4.219-1.851,1.154,1.154,0,0,1-.951-1.384,1.165,1.165,0,0,1,1.336-.917,11.4,11.4,0,0,1,9.319,8.5A15.178,15.178,0,0,1-965.482,1314.871Z" transform="translate(997.713 -1292.506)" fill="#000"/>
</svg>